<?xml version="1.0" ?><!DOCTYPE svg  PUBLIC '-//W3C//DTD SVG 1.1//EN'  'http://www.w3.org/Graphics/SVG/1.1/DTD/svg11.dtd'><svg enable-background="new 0 0 128 128" id="Layer_5" version="1.1" viewBox="0 0 128 128" xml:space="preserve" xmlns="http://www.w3.org/2000/svg" xmlns:xlink="http://www.w3.org/1999/xlink"><g><g><g><path d="M75.2,11.4c5.1,3.8,8.4,9.9,8.4,16.7v19c0,0,0,0,0,0c0.8,0.1,15.8,1.7,22.9,12.6V27.2      c0-10.9-8.8-19.7-19.7-19.7C82.5,7.5,78.5,9,75.2,11.4z" fill="#E6E7E8"/></g><path d="M81.5,34.7c1.7-0.5,3.5-1.8,4.8-3.7c2.3-3.3,2.6-7.2,0.6-8.6c-1.4-1-3.6-0.5-5.6,1" fill="#001219"/><ellipse cx="98.3" cy="28.4" fill="#001219" rx="4.5" ry="7.3" transform="matrix(0.8167 -0.5771 0.5771 0.8167 1.6561 61.9435)"/><g><path d="M70,8.4c1.2,0.5,2.4,1,3.5,1.7c3.5-3.3,8.2-5.3,13.4-5.3c10.9,0,19.7,8.8,19.7,19.7v35.1      c1.1,1.7,2,3.5,2.6,5.7V23c0-12.3-10-22.3-22.3-22.3C80.1,0.7,74.1,3.7,70,8.4z" fill="#001219"/></g><path d="M83.5,39.7V47c0,0,0,0,0,0c0.5,0.1,7.9,0.9,14.7,4.9c-0.2-9-4.1-16.1-9-16.1     C87.1,35.8,85.1,37.3,83.5,39.7z" fill="#001219"/></g><path d="M41.7,47.4" fill="#E6E7E8" stroke="#001219" stroke-miterlimit="10"/><g><path d="M83.8,47.1C83.8,47.1,83.8,47.1,83.8,47.1l0-20.4c0-7.2-4-13.8-10.3-17c-6.3-3.2-12.7-3.3-18-1.3     c-1.2,0.5-2.4,1-3.5,1.7c-6.1,3.7-10.1,10.3-10.1,17.9v19c0,0,0,0,0,0c-0.8,0.1-15.8,1.7-22.9,12.6c-1.1,1.7-2,3.5-2.6,5.7     c-0.6,2.1-1,4.5-1,7.2c0,4.1,3.3,7.4,7.4,7.4c4.1,0,7.4-2.7,7.4-7.4c0-12.5,16-6.3,16.5-6.1c0,0,0,0,0,0c-9.1,15-6,24.6-0.9,33.8     c4.3,7.8-0.6,14.5-11.1,27.4c0,0,0,0.1,0,0.1c22-3.9,60.2-19.7,44.2-61.3c0,0,0,0,0,0c0.5-0.2,16.5-6.4,16.5,6.1     c0,4.7,3.3,7.4,7.4,7.4c4.1,0,7.4-3.3,7.4-7.4C110.3,50,84.8,47.2,83.8,47.1z M102.7,76.6c-3.4,0-3.8-1.1-3.8-5     c0-17.8-24.9-7.6-25.6-7.3c0,0,0,0,0,0c21.4,35.2-26.7,57-30.1,58.5c0,0-0.1,0,0-0.1c1.5-1.3,12-13.2,6.1-23.2     c-5.8-9.8-6.1-21,3.1-35.3c0,0,0,0,0,0c-0.7-0.3-25.6-10.5-25.6,7.3c0,3.9-0.4,5-3.8,5c-3.4,0-4.2-2.8-4.2-6.2     c0-0.6,0-1.3,0.1-1.9c0-0.3,0.1-0.6,0.1-0.9C21.3,51.7,44.3,50.1,45.3,50c0,0,0,0,0,0V27.7c0-5.6,2.9-10.8,7.8-13.5     C66.6,6.7,80.2,16.3,80.2,29v21c0,0,0,0,0,0c1,0.1,26.6,1.9,26.6,20.3C106.9,73.8,106.1,76.6,102.7,76.6z" fill="#001219"/><path d="M106.9,70.3c0,3.4-0.8,6.2-4.2,6.2c-3.4,0-3.8-1.1-3.8-5c0-17.7-28.4-6.2-29.2-5.9     c15.3,32-16.7,51.1-26.2,57c-0.1,0-0.1-0.1-0.1-0.1c2.1-1.9,10.4-12.4,6-21.3c-6.9-13.7-5.9-23.1,3-36.9c0,0-25.6-10.8-25.6,7.3     c0,3.9-0.4,5-3.8,5c-3.4,0-4.2-2.8-4.2-6.2C18.7,51.5,49.1,50,49.1,50V33c0-10,3.3-20.7,12.2-21.4c10.4-0.9,18.9,7.6,18.9,18V50     C80.2,50,106.9,51.5,106.9,70.3z" fill="#E6E7E8"/></g><ellipse cx="72" cy="31.9" fill="#001219" rx="4.5" ry="7.3" transform="matrix(0.8167 -0.5771 0.5771 0.8167 -5.216 47.3799)"/><path d="M73.1,56c0,5-4,0-9,0c-5,0-9,5-9,0s4-9,9-9C69.1,47,73.1,51.1,73.1,56z" fill="#001219"/><ellipse cx="56.3" cy="31.9" fill="#001219" rx="4.5" ry="7.3" transform="matrix(-0.8167 -0.5771 0.5771 -0.8167 83.8291 90.4295)"/><g><g><path d="M50.2,11.4c-5.1,3.8-8.4,9.9-8.4,16.7v19c0,0,0,0,0,0c-0.8,0.1-15.8,1.7-22.9,12.6V27.2      c0-10.9,8.8-19.7,19.7-19.7C42.9,7.5,46.9,9,50.2,11.4z" fill="#E6E7E8"/></g><path d="M44,34.7c-1.7-0.5-3.5-1.8-4.8-3.7c-2.3-3.3-2.6-7.2-0.6-8.6c1.4-1,3.6-0.5,5.6,1" fill="#001219"/><ellipse cx="27.1" cy="28.4" fill="#001219" rx="4.5" ry="7.3" transform="matrix(-0.8167 -0.5771 0.5771 -0.8167 32.8988 67.181)"/><g><path d="M55.4,8.4c-1.2,0.5-2.4,1-3.5,1.7c-3.5-3.3-8.2-5.3-13.4-5.3c-10.9,0-19.7,8.8-19.7,19.7v35.1      c-1.1,1.7-2,3.5-2.6,5.7V23c0-12.3,10-22.3,22.3-22.3C45.3,0.7,51.4,3.7,55.4,8.4z" fill="#001219"/></g><path d="M41.9,39.7V47c0,0,0,0,0,0c-0.5,0.1-7.9,0.9-14.7,4.9c0.2-9,4.1-16.1,9-16.1     C38.4,35.8,40.4,37.3,41.9,39.7z" fill="#001219"/></g></g></svg>